<svg width="150" height="150" viewBox="0 0 150 150" fill="none" xmlns="http://www.w3.org/2000/svg">
<rect width="150" height="150" rx="26" fill="#111827"/>
<path d="M26.15 101L49.456 40.8H58.916L82.05 101H72.16L58.4 64.708C58.228 64.3067 57.884 63.332 57.368 61.784C56.9093 60.236 56.3647 58.516 55.734 56.624C55.1033 54.732 54.53 53.012 54.014 51.464C53.498 49.8587 53.154 48.8267 52.982 48.368L54.96 48.282C54.616 49.2567 54.186 50.4893 53.67 51.98C53.2113 53.4707 52.6953 55.0473 52.122 56.71C51.606 58.3727 51.09 59.9493 50.574 61.44C50.058 62.8733 49.628 64.0773 49.284 65.052L35.61 101H26.15ZM36.47 86.036L39.91 77.092H67.258L71.214 86.036H36.47ZM90.4088 101V92.4H100.127V49.4H90.4088V40.8H119.133V49.4H109.415V92.4H119.133V101H90.4088Z" fill="white"/>
</svg>
